<svg xmlns="http://www.w3.org/2000/svg" width="1980" height="1000" viewBox="0 0 1980 1000"><rect width="100%" height="100%" fill="#DDDDDD"/><path fill="#999999" d="M470.48 556.225h27.17v19.33h-83.6v-19.33h30.62v-88.1q0-5.22.31-10.76l-21.73 18.18q-1.88 1.47-3.71 1.83-1.83.37-3.45.05-1.62-.31-2.88-1.09-1.25-.79-1.88-1.73l-8.15-11.18 46.09-39.19h21.21zm74.72-86.42q0 12.64 6.53 19.28 6.53 6.63 18.55 6.63 6.27 0 11.18-1.98 4.91-1.99 8.25-5.44 3.35-3.45 5.07-8.15 1.73-4.7 1.73-10.14 0-6.16-1.88-11.02t-5.33-8.2q-3.45-3.35-8.21-5.12-4.75-1.78-10.39-1.78-5.86 0-10.56 1.93-4.7 1.94-8.05 5.39-3.34 3.44-5.12 8.2-1.77 4.75-1.77 10.4m-12.65 105.75 46.92-58.62q1.78-2.2 3.35-4.29t3.03-4.18q-5.23 3.35-11.5 5.07t-13.16 1.72q-7.84 0-15.36-2.71-7.53-2.72-13.38-8.21-5.85-5.48-9.46-13.58-3.6-8.1-3.6-18.97 0-10.14 3.76-19.02t10.55-15.57q6.8-6.69 16.31-10.55 9.5-3.87 21-3.87 11.6 0 20.85 3.66t15.78 10.24 10.03 15.78q3.5 9.19 3.5 20.17 0 7-1.2 13.27t-3.4 12.07q-2.19 5.8-5.33 11.34-3.13 5.54-7 10.97l-34.59 49.32q-1.78 2.51-5.33 4.24-3.55 1.72-8.05 1.72zm159.99-18.5q6.38 0 11.18-1.83 4.81-1.82 8.1-5.06 3.3-3.24 4.97-7.74 1.67-4.49 1.67-9.71 0-12.44-6.9-18.81-6.9-6.38-19.02-6.38t-19.02 6.38q-6.89 6.37-6.89 18.81 0 5.22 1.67 9.71 1.67 4.5 4.96 7.74t8.1 5.06q4.81 1.83 11.18 1.83m0-114.84q-5.74 0-9.92 1.77-4.18 1.78-6.95 4.76t-4.08 6.84q-1.31 3.87-1.31 8.16 0 4.49 1.1 8.72t3.71 7.52q2.61 3.3 6.9 5.28 4.28 1.99 10.55 1.99t10.56-1.99q4.28-1.98 6.89-5.28 2.62-3.29 3.71-7.52 1.1-4.23 1.1-8.72 0-4.29-1.36-8.16-1.36-3.86-4.07-6.84-2.72-2.98-6.9-4.76-4.18-1.77-9.93-1.77m25.5 54.55q13.79 4.49 20.38 13.74 6.58 9.25 6.58 22.62 0 10.04-3.81 18.19-3.82 8.15-10.71 13.89-6.9 5.75-16.57 8.89-9.66 3.13-21.37 3.13-11.7 0-21.37-3.13-9.66-3.14-16.56-8.89-6.9-5.74-10.71-13.89-3.82-8.15-3.82-18.19 0-13.37 6.59-22.62 6.58-9.25 20.38-13.74-10.98-4.6-16.46-13.07-5.49-8.46-5.49-20.37 0-8.57 3.5-15.99t9.77-12.91q6.27-5.48 15-8.57 8.72-3.08 19.17-3.08t19.18 3.08q8.72 3.09 14.99 8.57 6.27 5.49 9.78 12.91 3.5 7.42 3.5 15.99 0 11.91-5.49 20.37-5.49 8.47-16.46 13.07m151.11 3.24q0 19.75-4.23 34.32-4.24 14.58-11.71 24.09t-17.66 14.16-22 4.65q-11.8 0-21.89-4.65-10.08-4.65-17.5-14.16t-11.6-24.09q-4.18-14.57-4.18-34.32 0-19.86 4.18-34.38 4.18-14.53 11.6-24.04t17.5-14.16q10.09-4.65 21.89-4.65 11.81 0 22 4.65t17.66 14.16 11.71 24.04q4.23 14.52 4.23 34.38m-26.65 0q0-16.41-2.4-27.17-2.41-10.77-6.43-17.14-4.02-6.38-9.25-8.94-5.22-2.56-10.87-2.56-5.53 0-10.71 2.56-5.17 2.56-9.14 8.94-3.97 6.37-6.32 17.14-2.35 10.76-2.35 27.17 0 16.4 2.35 27.17 2.35 10.76 6.32 17.13 3.97 6.38 9.14 8.94 5.18 2.56 10.71 2.56 5.65 0 10.87-2.56 5.23-2.56 9.25-8.94 4.02-6.37 6.43-17.13 2.4-10.77 2.4-27.17m192.59 40.96-13.69 13.48-35.42-35.42-35.74 35.63-13.69-13.48 35.74-35.84-34.07-34.07 13.59-13.59 34.06 34.07 33.86-33.86 13.8 13.59-33.97 33.96zm143.06 15.26h27.17v19.33h-83.6v-19.33h30.62v-88.1q0-5.22.32-10.76l-21.74 18.18q-1.88 1.47-3.71 1.83-1.83.37-3.45.05-1.62-.31-2.87-1.09-1.26-.79-1.88-1.73l-8.15-11.18 46.08-39.19h21.21zm156.23-56.22q0 19.75-4.23 34.32-4.23 14.58-11.7 24.09-7.48 9.51-17.66 14.16-10.19 4.65-22 4.65t-21.89-4.65q-10.09-4.65-17.51-14.16t-11.6-24.09q-4.18-14.57-4.18-34.32 0-19.86 4.18-34.38 4.18-14.53 11.6-24.04t17.51-14.16q10.08-4.65 21.89-4.65t22 4.65q10.18 4.65 17.66 14.16 7.47 9.51 11.7 24.04 4.23 14.52 4.23 34.38m-26.65 0q0-16.41-2.4-27.17-2.4-10.77-6.43-17.14-4.02-6.38-9.24-8.94-5.23-2.56-10.87-2.56-5.54 0-10.71 2.56-5.18 2.56-9.15 8.94-3.97 6.37-6.32 17.14-2.35 10.76-2.35 27.17 0 16.4 2.35 27.17 2.35 10.76 6.32 17.13 3.97 6.38 9.15 8.94 5.17 2.56 10.71 2.56 5.64 0 10.87-2.56 5.22-2.56 9.24-8.94 4.03-6.37 6.43-17.13 2.4-10.77 2.4-27.17m147.87 0q0 19.75-4.23 34.32-4.23 14.58-11.7 24.09-7.48 9.51-17.66 14.16-10.19 4.65-22 4.65t-21.89-4.65q-10.09-4.65-17.51-14.16t-11.6-24.09q-4.18-14.57-4.18-34.32 0-19.86 4.18-34.38 4.18-14.53 11.6-24.04t17.51-14.16q10.08-4.65 21.89-4.65t22 4.65q10.18 4.65 17.66 14.16 7.47 9.51 11.7 24.04 4.23 14.52 4.23 34.38m-26.65 0q0-16.41-2.4-27.17-2.4-10.77-6.43-17.14-4.02-6.38-9.24-8.94-5.23-2.56-10.87-2.56-5.54 0-10.71 2.56-5.18 2.56-9.15 8.94-3.97 6.37-6.32 17.14-2.35 10.76-2.35 27.17 0 16.4 2.35 27.17 2.35 10.76 6.32 17.13 3.97 6.38 9.15 8.94 5.17 2.56 10.71 2.56 5.64 0 10.87-2.56 5.22-2.56 9.24-8.94 4.03-6.37 6.43-17.13 2.4-10.77 2.4-27.17m147.87 0q0 19.75-4.23 34.32-4.23 14.58-11.7 24.09-7.48 9.51-17.66 14.16-10.19 4.65-22 4.65t-21.89-4.65q-10.09-4.65-17.51-14.16t-11.6-24.09q-4.18-14.57-4.18-34.32 0-19.86 4.18-34.38 4.18-14.53 11.6-24.04t17.51-14.16q10.08-4.65 21.89-4.65t22 4.65q10.18 4.65 17.66 14.16 7.47 9.51 11.7 24.04 4.23 14.52 4.23 34.38m-26.65 0q0-16.41-2.4-27.17-2.4-10.77-6.43-17.14-4.02-6.38-9.24-8.94-5.23-2.56-10.87-2.56-5.54 0-10.71 2.56-5.18 2.56-9.15 8.94-3.97 6.37-6.32 17.14-2.35 10.76-2.35 27.17 0 16.4 2.35 27.17 2.35 10.76 6.32 17.13 3.97 6.38 9.15 8.94 5.17 2.56 10.71 2.56 5.64 0 10.87-2.56 5.22-2.56 9.24-8.94 4.03-6.37 6.43-17.13 2.4-10.77 2.4-27.17"/></svg>
