<?xml version="1.0" encoding="utf-8"?>
<svg xmlns="http://www.w3.org/2000/svg" viewBox="188.9243 54.0272 129.13 131.296" width="129.13px" height="131.296px"><defs><linearGradient id="Gradiente_sem_nome_101" data-name="Gradiente sem nome 101" x1="307.98" y1="133.85" x2="331.41" y2="84.71" gradientUnits="userSpaceOnUse"><stop offset="0.18" stop-color="#8c4a95"/><stop offset="0.85" stop-color="#26173e"/></linearGradient><linearGradient id="Gradiente_sem_nome_44" data-name="Gradiente sem nome 44" x1="253.97" y1="76.87" x2="325.65" y2="149.14" gradientUnits="userSpaceOnUse"><stop offset="0" stop-color="#404999"/><stop offset="0.08" stop-color="#2c54a2"/><stop offset="0.29" stop-color="#006eb7"/><stop offset="0.57" stop-color="#1aa894"/><stop offset="0.84" stop-color="#86bc25"/></linearGradient><linearGradient id="Gradiente_sem_nome_80" data-name="Gradiente sem nome 80" x1="301.34" y1="83.3" x2="339.57" y2="83.3" gradientUnits="userSpaceOnUse"><stop offset="0.08" stop-color="#62255e"/><stop offset="0.29" stop-color="#ab2061"/><stop offset="0.43" stop-color="#d81d64"/><stop offset="0.53" stop-color="#dd3461"/><stop offset="0.73" stop-color="#ec6b5c"/><stop offset="0.99" stop-color="#f59a38"/></linearGradient><linearGradient id="Gradiente_sem_nome_187" data-name="Gradiente sem nome 187" x1="233.07" y1="192.19" x2="362.2" y2="192.19" gradientUnits="userSpaceOnUse"><stop offset="0" stop-color="#3278b6"/><stop offset="0.01" stop-color="#4b8aaf"/><stop offset="0.03" stop-color="#6da3a7"/><stop offset="0.05" stop-color="#87b7a0"/><stop offset="0.07" stop-color="#9ac59b"/><stop offset="0.09" stop-color="#a6ce98"/><stop offset="0.11" stop-color="#aad198"/><stop offset="0.24" stop-color="#b3d2de"/><stop offset="0.39" stop-color="#18a855"/><stop offset="0.39" stop-color="#19a556"/><stop offset="0.41" stop-color="#318467"/><stop offset="0.43" stop-color="#446975"/><stop offset="0.45" stop-color="#535480"/><stop offset="0.47" stop-color="#5e4588"/><stop offset="0.49" stop-color="#653c8c"/><stop offset="0.53" stop-color="#673a8e"/><stop offset="0.55" stop-color="#79497e"/><stop offset="0.59" stop-color="#a77255"/><stop offset="0.63" stop-color="#cc9235"/><stop offset="0.66" stop-color="#e6a91e"/><stop offset="0.69" stop-color="#f6b710"/><stop offset="0.72" stop-color="#fcbc0c"/><stop offset="0.75" stop-color="#fab90f"/><stop offset="0.77" stop-color="#f6b11a"/><stop offset="0.8" stop-color="#efa32d"/><stop offset="0.82" stop-color="#e58f48"/><stop offset="0.85" stop-color="#d7766a"/><stop offset="0.87" stop-color="#c85894"/><stop offset="0.87" stop-color="#c6549a"/><stop offset="1" stop-color="#e52026"/></linearGradient></defs><g transform="matrix(0.9999999999999999, 0, 0, 0.9999999999999999, -44.145713806152344, -14.496810913085945)" id="object-3"><g><g><path class="st4" d="M244.53,147.81l5.54,11.38h.89l5.48-11.38h5.07l-7.44,15.22h-7.1l-7.53-15.22h5.09Z" style="fill: rgb(29, 29, 27);"/><path class="st4" d="M268.66,147.81v15.22h-4.86v-15.22h4.86Z" style="fill: rgb(29, 29, 27);"/><path class="st4" d="M290.45,147.81v3.49l-11.13,8.08,11.48-.16v3.81h-18.82v-3.56l11-8.01-10.75.16v-3.81h18.23Z" style="fill: rgb(29, 29, 27);"/><path class="st4" d="M311.27,147.81v3.58h-12.27v2.21h11.66v3.35h-11.66v2.42h12.37v3.65h-16.93v-15.22h16.84Z" style="fill: rgb(29, 29, 27);"/><path class="st4" d="M319.86,147.81v11.34h10.81v3.88h-15.67v-15.22h4.86Z" style="fill: rgb(29, 29, 27);"/><path class="st4" d="M349.26,160.45h-10.06l-1.3,2.58h-5.29l8.05-15.22h7.21l7.96,15.22h-5.27l-1.3-2.58ZM344.7,151.35h-.91l-2.94,5.77h6.8l-2.94-5.77Z" style="fill: rgb(29, 29, 27);"/><g><path class="st4" d="M237.53,167.25l4.86,9.98h.78l4.8-9.98h4.44l-6.52,13.34h-6.22l-6.6-13.34h4.46Z" style="fill: rgb(29, 29, 27);"/><path class="st4" d="M258.72,167.25v13.34h-4.26v-13.34h4.26Z" style="fill: rgb(29, 29, 27);"/><path class="st4" d="M275.12,178.33h-8.82l-1.14,2.26h-4.64l7.06-13.34h6.32l6.98,13.34h-4.62l-1.14-2.26ZM271.12,170.35h-.8l-2.58,5.06h5.96l-2.58-5.06Z" style="fill: rgb(29, 29, 27);"/><path class="st4" d="M301.58,173.03v.36c0,1.32-.08,3.6-.14,4.24-.16,1.56-1.02,2.48-2.62,2.8-1.36.28-2.76.36-6.38.36-4.58,0-6-.18-7.12-.94-1.18-.78-1.4-1.76-1.4-6.14,0-6.24.58-6.66,9.22-6.66,4.96,0,6.8.32,7.68,1.38.56.66.72,1.48.74,3.44h-4.06c-.02-.78-.06-.94-.32-1.12-.4-.28-1.34-.36-4.38-.36-4.8,0-4.82.02-4.82,3.48,0,2.26.12,2.94.56,3.3.34.28.7.34,1.84.38l2.38.04c4.74,0,4.86-.04,4.86-1.52v-.38h-5.34v-2.66h9.3Z" style="fill: rgb(29, 29, 27);"/><path class="st4" d="M319.61,167.25v3.14h-10.76v1.94h10.22v2.94h-10.22v2.12h10.84v3.2h-14.84v-13.34h14.76Z" style="fill: rgb(29, 29, 27);"/><path class="st4" d="M330.88,167.25l6.98,9.94h.42l-.1-9.94h4.14v13.34h-7.06l-7.02-9.96h-.44l.1,9.96h-4.14v-13.34h7.12Z" style="fill: rgb(29, 29, 27);"/><path class="st4" d="M349.82,176.17c0,.8.08,1.06.4,1.26.38.24.82.28,3.68.28q4.36,0,4.36-1.18c0-.8-.3-1-1.6-1.02l-3.2-.12-2.16-.1-1.08-.04c-3.3-.1-4.22-.94-4.22-3.88,0-2.54.72-3.68,2.56-4.08.78-.16,2.62-.24,5.82-.24,3.88,0,5.28.18,6.22.82.8.54,1.12,1.38,1.12,2.96,0,.08,0,.36-.02.62h-3.92c-.04-.74-.1-.92-.4-1.1-.34-.2-.84-.24-3.72-.24-3.44,0-3.72.08-3.72,1.06,0,.5.18.76.6.86.36.1,1.46.16,4.28.24,4.4.14,5.26.24,6.12.78.92.6,1.26,1.5,1.26,3.36,0,2.32-.56,3.46-1.94,3.98-.8.3-2.48.4-6.46.4s-5.76-.18-6.7-.78c-.92-.58-1.22-1.36-1.22-3.2v-.64h3.94Z" style="fill: rgb(29, 29, 27);"/></g><g><path class="st5" d="M318.36,86c-.12.18-17.84,38.51-17.84,38.51l4.3,10.01,13.54-2.77s2.47-.71,8.3-12.07,11.01-20.49,11.72-26.14c.71-5.65-15.78-8.6-17.66-7.54s-2.36,0-2.36,0Z" style="fill: url(&quot;#Gradiente_sem_nome_101&quot;);"/><path class="st17" d="M255.7,68.74l35.73,75.29s9.49.38,16.89-3.99c9.01-5.32,11.99-10.06,11.99-10.06,0,0-8.05,4.53-12.91-4.24s-14.9-30.44-18.43-39.39-8.83-13.6-18.13-16.13c-9.3-2.53-15.14-1.48-15.14-1.48Z" style="fill: url(&quot;#Gradiente_sem_nome_44&quot;);"/><path class="st12" d="M301.34,88.75l9.18-20.02h8.95c4.89,0,12.78,0,17.43,8.07s2.18,16.19.35,21.08c0,0,1.47-9.18-10.24-9.18s-25.67.06-25.67.06Z" style="fill: url(&quot;#Gradiente_sem_nome_80&quot;);"/></g><path class="st2" d="M288.97,198.32c0,.76-.62,1.37-1.37,1.37s-1.37-.62-1.37-1.37.62-1.37,1.37-1.37,1.37.62,1.37,1.37ZM287.59,197.65c-.38,0-.68.31-.68.68s.31.68.68.68.68-.31.68-.68-.31-.68-.68-.68ZM307.68,196.95c.76,0,1.37.62,1.37,1.37,0,.76-.62,1.37-1.37,1.37s-1.37-.62-1.37-1.37.62-1.37,1.37-1.37ZM307,198.33c0,.38.31.68.68.68s.68-.31.68-.68c0-.38-.31-.68-.68-.68s-.68.31-.68.68ZM297.64,190.24c-2.14,0-3.88,2.14-3.88,4.79s1.74,4.79,3.88,4.79,3.88-2.14,3.88-4.79-1.74-4.79-3.88-4.79ZM297.14,194.73c-1.82,0-1.99-1.53-1.99-1.53h1.99v1.53ZM298.14,194.73v-1.53h1.99s-.18,1.53-1.99,1.53ZM293.12,193.63c.07-.34.16-.66.27-.97h-4.2s1.78.71,2.79.86c.33.05.73.09,1.14.12ZM297.64,189.28c.15,0,.3.01.44.03,0-.96-.06-3.08-.44-4.75-.38,1.67-.44,3.79-.44,4.75.15-.02.29-.03.44-.03ZM306.08,192.66h-4.2c.11.31.2.64.27.97.4-.03.81-.07,1.14-.12,1.01-.14,2.79-.86,2.79-.86ZM292.99,195.13h-17.08s1.63.71,5.01,1.34c1.38.26,3.02.48,4.86.65.39-.59,1.06-.98,1.81-.98.87,0,1.61.51,1.96,1.25,1.25.07,2.55.12,3.9.15-.29-.73-.46-1.55-.47-2.41ZM302.29,195.13c-.01.86-.18,1.68-.47,2.41,1.35-.03,2.65-.08,3.9-.15.35-.74,1.09-1.25,1.96-1.25.76,0,1.42.39,1.81.98,1.84-.17,3.48-.39,4.86-.65,3.38-.63,5.01-1.34,5.01-1.34h-17.08ZM271.43,195.24h-38.36v2.31h38.36v-2.31ZM362.2,195.24h-38.36v2.31h38.36v-2.31Z" style="fill: url(&quot;#Gradiente_sem_nome_187&quot;);"/></g></g></g></svg>