<?xml version="1.0" encoding="utf-8"?>
<svg xmlns="http://www.w3.org/2000/svg" viewBox="578.3333 251.5668 436.44 69.0456" width="436.44px" height="69.0456px"><defs><linearGradient id="Gradiente_sem_nome_1013" data-name="Gradiente sem nome 101" x1="127.21" y1="712.27" x2="148.63" y2="667.35" href="#Gradiente_sem_nome_101"/><linearGradient id="Gradiente_sem_nome_101" data-name="Gradiente sem nome 101" x1="307.98" y1="133.85" x2="331.41" y2="84.71" gradientUnits="userSpaceOnUse"><stop offset="0.18" stop-color="#8c4a95"/><stop offset="0.85" stop-color="#26173e"/></linearGradient><linearGradient id="Gradiente_sem_nome_443" data-name="Gradiente sem nome 44" x1="77.84" y1="660.18" x2="143.37" y2="726.25" href="#Gradiente_sem_nome_44"/><linearGradient id="Gradiente_sem_nome_44" data-name="Gradiente sem nome 44" x1="253.97" y1="76.87" x2="325.65" y2="149.14" gradientUnits="userSpaceOnUse"><stop offset="0" stop-color="#404999"/><stop offset="0.08" stop-color="#2c54a2"/><stop offset="0.29" stop-color="#006eb7"/><stop offset="0.57" stop-color="#1aa894"/><stop offset="0.84" stop-color="#86bc25"/></linearGradient><linearGradient id="Gradiente_sem_nome_803" data-name="Gradiente sem nome 80" x1="121.15" y1="666.06" x2="156.09" y2="666.06" href="#Gradiente_sem_nome_80"/><linearGradient id="Gradiente_sem_nome_80" data-name="Gradiente sem nome 80" x1="301.34" y1="83.3" x2="339.57" y2="83.3" gradientUnits="userSpaceOnUse"><stop offset="0.08" stop-color="#62255e"/><stop offset="0.29" stop-color="#ab2061"/><stop offset="0.43" stop-color="#d81d64"/><stop offset="0.53" stop-color="#dd3461"/><stop offset="0.73" stop-color="#ec6b5c"/><stop offset="0.99" stop-color="#f59a38"/></linearGradient><linearGradient id="Gradiente_sem_nome_1873" data-name="Gradiente sem nome 187" x1="165.48" y1="707.8" x2="515.85" y2="707.8" href="#Gradiente_sem_nome_187"/><linearGradient id="Gradiente_sem_nome_187" data-name="Gradiente sem nome 187" x1="233.07" y1="192.19" x2="362.2" y2="192.19" gradientUnits="userSpaceOnUse"><stop offset="0" stop-color="#3278b6"/><stop offset="0.01" stop-color="#4b8aaf"/><stop offset="0.03" stop-color="#6da3a7"/><stop offset="0.05" stop-color="#87b7a0"/><stop offset="0.07" stop-color="#9ac59b"/><stop offset="0.09" stop-color="#a6ce98"/><stop offset="0.11" stop-color="#aad198"/><stop offset="0.24" stop-color="#b3d2de"/><stop offset="0.39" stop-color="#18a855"/><stop offset="0.39" stop-color="#19a556"/><stop offset="0.41" stop-color="#318467"/><stop offset="0.43" stop-color="#446975"/><stop offset="0.45" stop-color="#535480"/><stop offset="0.47" stop-color="#5e4588"/><stop offset="0.49" stop-color="#653c8c"/><stop offset="0.53" stop-color="#673a8e"/><stop offset="0.55" stop-color="#79497e"/><stop offset="0.59" stop-color="#a77255"/><stop offset="0.63" stop-color="#cc9235"/><stop offset="0.66" stop-color="#e6a91e"/><stop offset="0.69" stop-color="#f6b710"/><stop offset="0.72" stop-color="#fcbc0c"/><stop offset="0.75" stop-color="#fab90f"/><stop offset="0.77" stop-color="#f6b11a"/><stop offset="0.8" stop-color="#efa32d"/><stop offset="0.82" stop-color="#e58f48"/><stop offset="0.85" stop-color="#d7766a"/><stop offset="0.87" stop-color="#c85894"/><stop offset="0.87" stop-color="#c6549a"/><stop offset="1" stop-color="#e52026"/></linearGradient></defs><g transform="matrix(0.9999999999999999, 0, 0, 0.9999999999999999, 498.92324829101557, -400.97534179687494)" id="object-0"><g><path class="st7" d="M136.7,668.53c-.11.16-16.31,35.2-16.31,35.2l3.93,9.15,12.38-2.53s2.26-.65,7.59-11.03c5.33-10.39,10.06-18.73,10.71-23.9s-14.42-7.86-16.15-6.89-2.15,0-2.15,0Z" style="fill: url(&quot;#Gradiente_sem_nome_1013&quot;);"/><path class="st9" d="M79.42,652.75l32.66,68.83s8.68.35,15.44-3.65c8.23-4.86,10.96-9.2,10.96-9.2,0,0-7.36,4.14-11.8-3.88s-13.62-27.83-16.85-36.01c-3.23-8.18-8.07-12.43-16.58-14.75-8.5-2.31-13.84-1.35-13.84-1.35Z" style="fill: url(&quot;#Gradiente_sem_nome_443&quot;);"/><path class="st14" d="M121.15,671.04l8.4-18.3h8.18c4.47,0,11.68,0,15.93,7.37,4.25,7.37,1.99,14.8.32,19.27,0,0,1.35-8.4-9.36-8.4s-23.47.05-23.47.05Z" style="fill: url(&quot;#Gradiente_sem_nome_803&quot;);"/></g><g><path class="st4" d="M173.14,679.83l7.14,14.66h1.15l7.05-14.66h6.52l-9.58,19.59h-9.14l-9.69-19.59h6.55Z" style="fill: rgb(29, 29, 27);"/><path class="st4" d="M204.07,679.83v19.59h-6.26v-19.59h6.26Z" style="fill: rgb(29, 29, 27);"/><path class="st4" d="M231.68,679.83v4.49l-14.33,10.4,14.77-.21v4.91h-24.23v-4.58l14.16-10.31-13.83.21v-4.91h23.47Z" style="fill: rgb(29, 29, 27);"/><path class="st4" d="M257.62,679.83v4.61h-15.8v2.85h15.01v4.32h-15.01v3.11h15.92v4.7h-21.79v-19.59h21.68Z" style="fill: rgb(29, 29, 27);"/><path class="st4" d="M267.73,679.83v14.6h13.92v4.99h-20.18v-19.59h6.26Z" style="fill: rgb(29, 29, 27);"/><path class="st4" d="M305.65,696.1h-12.95l-1.67,3.32h-6.81l10.37-19.59h9.28l10.25,19.59h-6.79l-1.67-3.32ZM299.78,684.38h-1.17l-3.79,7.43h8.75l-3.79-7.43Z" style="fill: rgb(29, 29, 27);"/><path class="st4" d="M336.5,679.83l7.14,14.66h1.15l7.05-14.66h6.52l-9.58,19.59h-9.14l-9.69-19.59h6.55Z" style="fill: rgb(29, 29, 27);"/><path class="st4" d="M366.84,679.83v19.59h-6.26v-19.59h6.26Z" style="fill: rgb(29, 29, 27);"/><path class="st4" d="M389.84,696.1h-12.95l-1.67,3.32h-6.81l10.37-19.59h9.28l10.25,19.59h-6.79l-1.67-3.32ZM383.96,684.38h-1.17l-3.79,7.43h8.75l-3.79-7.43Z" style="fill: rgb(29, 29, 27);"/><path class="st4" d="M428.12,688.31v.53c0,1.94-.12,5.29-.21,6.23-.23,2.29-1.5,3.64-3.85,4.11-2,.41-4.05.53-9.37.53-6.73,0-8.81-.26-10.46-1.38-1.73-1.15-2.06-2.58-2.06-9.02,0-9.16.85-9.78,13.54-9.78,7.28,0,9.99.47,11.28,2.03.82.97,1.06,2.17,1.09,5.05h-5.96c-.03-1.15-.09-1.38-.47-1.64-.59-.41-1.97-.53-6.43-.53-7.05,0-7.08.03-7.08,5.11,0,3.32.18,4.32.82,4.85.5.41,1.03.5,2.7.56l3.5.06c6.96,0,7.14-.06,7.14-2.23v-.56h-7.84v-3.91h13.66Z" style="fill: rgb(29, 29, 27);"/><path class="st4" d="M454.61,679.83v4.61h-15.8v2.85h15.01v4.32h-15.01v3.11h15.92v4.7h-21.79v-19.59h21.68Z" style="fill: rgb(29, 29, 27);"/><path class="st4" d="M469.51,679.83l10.25,14.6h.62l-.15-14.6h6.08v19.59h-10.37l-10.31-14.63h-.65l.15,14.63h-6.08v-19.59h10.46Z" style="fill: rgb(29, 29, 27);"/><path class="st4" d="M496.56,692.93c0,1.17.12,1.56.59,1.85.56.35,1.2.41,5.4.41q6.4,0,6.4-1.73c0-1.17-.44-1.47-2.35-1.5l-4.7-.18-3.17-.15-1.59-.06c-4.85-.15-6.2-1.38-6.2-5.7,0-3.73,1.06-5.4,3.76-5.99,1.15-.23,3.85-.35,8.55-.35,5.7,0,7.75.26,9.14,1.2,1.17.79,1.64,2.03,1.64,4.35,0,.12,0,.53-.03.91h-5.76c-.06-1.09-.15-1.35-.59-1.62-.5-.29-1.23-.35-5.46-.35-5.05,0-5.46.12-5.46,1.56,0,.73.26,1.12.88,1.26.53.15,2.14.23,6.29.35,6.46.21,7.73.35,8.99,1.15,1.35.88,1.85,2.2,1.85,4.93,0,3.41-.82,5.08-2.85,5.85-1.17.44-3.64.59-9.49.59s-8.46-.26-9.84-1.15c-1.35-.85-1.79-2-1.79-4.7v-.94h5.79Z" style="fill: rgb(29, 29, 27);"/></g><path class="st13" d="M333.84,712.63c0,.6-.48,1.08-1.08,1.08s-1.08-.48-1.08-1.08.48-1.08,1.08-1.08,1.08.48,1.08,1.08ZM332.76,712.1c-.3,0-.54.24-.54.54s.24.54.54.54.54-.24.54-.54-.24-.54-.54-.54ZM348.57,711.55c.6,0,1.08.48,1.08,1.08,0,.6-.48,1.08-1.08,1.08s-1.08-.48-1.08-1.08.48-1.08,1.08-1.08ZM348.04,712.64c0,.3.24.54.54.54s.54-.24.54-.54c0-.3-.24-.54-.54-.54s-.54.24-.54.54ZM340.67,706.26c-1.69,0-3.06,1.69-3.06,3.77s1.37,3.77,3.06,3.77,3.06-1.69,3.06-3.77-1.37-3.77-3.06-3.77ZM340.27,709.8c-1.43,0-1.57-1.2-1.57-1.2h1.57v1.2ZM341.06,709.8v-1.2h1.57s-.14,1.2-1.57,1.2ZM337.11,708.94c.05-.27.13-.52.21-.77h-3.31s1.4.56,2.2.67c.26.04.58.07.89.09ZM340.67,705.51c.12,0,.23,0,.35.02,0-.76-.05-2.43-.35-3.74-.3,1.31-.35,2.98-.35,3.74.12-.01.23-.02.35-.02ZM347.31,708.17h-3.31c.09.24.16.5.21.77.32-.03.64-.06.89-.09.8-.11,2.2-.67,2.2-.67ZM337,710.12h-13.44s1.28.56,3.95,1.06c1.09.2,2.38.37,3.83.51.31-.46.83-.77,1.43-.77.68,0,1.27.4,1.55.99.98.05,2.01.09,3.07.11-.23-.58-.36-1.22-.37-1.9ZM344.33,710.12c-.01.68-.14,1.32-.37,1.9,1.06-.02,2.09-.06,3.07-.11.27-.58.86-.99,1.55-.99.6,0,1.12.31,1.43.77,1.44-.14,2.74-.31,3.83-.51,2.66-.5,3.95-1.06,3.95-1.06h-13.44ZM320.04,710.2h-154.55v1.82h154.55v-1.82ZM515.85,710.2h-154.55v1.82h154.55v-1.82Z" style="fill: url(&quot;#Gradiente_sem_nome_1873&quot;);"/></g></svg>